<mxfile host="Electron" agent="Mozilla/5.0 (Windows NT 10.0; Win64; x64) AppleWebKit/537.36 (KHTML, like Gecko) draw.io/24.7.8 Chrome/128.0.6613.36 Electron/32.0.1 Safari/537.36" version="24.7.8">
  <diagram name="17_Sum_Dic" id="sQRHrY9JpF4n7i_mmdn1">
    <mxGraphModel dx="1219" dy="713" grid="1" gridSize="10" guides="1" tooltips="1" connect="1" arrows="1" fold="1" page="1" pageScale="1" pageWidth="850" pageHeight="1100" math="0" shadow="0">
      <root>
        <mxCell id="0" />
        <mxCell id="1" parent="0" />
        <mxCell id="jA_umftNOJLrluZQmawY-2" value="Define a dictionary with key-value pairs" style="whiteSpace=wrap;strokeWidth=2;" vertex="1" parent="1">
          <mxGeometry x="270" y="353" width="301" height="33" as="geometry" />
        </mxCell>
        <mxCell id="jA_umftNOJLrluZQmawY-3" value="Get all values using dict.values()" style="whiteSpace=wrap;strokeWidth=2;" vertex="1" parent="1">
          <mxGeometry x="302" y="437" width="238" height="33" as="geometry" />
        </mxCell>
        <mxCell id="jA_umftNOJLrluZQmawY-4" value="Use sum() to calculate the total" style="whiteSpace=wrap;strokeWidth=2;" vertex="1" parent="1">
          <mxGeometry x="304" y="520" width="232" height="33" as="geometry" />
        </mxCell>
        <mxCell id="jA_umftNOJLrluZQmawY-5" value="Print the result" style="whiteSpace=wrap;strokeWidth=2;" vertex="1" parent="1">
          <mxGeometry x="359" y="604" width="124" height="33" as="geometry" />
        </mxCell>
        <mxCell id="jA_umftNOJLrluZQmawY-7" value="" style="curved=1;startArrow=none;endArrow=block;exitX=0.5;exitY=1;entryX=0.5;entryY=0.01;rounded=0;exitDx=0;exitDy=0;" edge="1" parent="1" source="jA_umftNOJLrluZQmawY-12" target="jA_umftNOJLrluZQmawY-2">
          <mxGeometry relative="1" as="geometry">
            <Array as="points" />
            <mxPoint x="420.5098039215686" y="303" as="sourcePoint" />
          </mxGeometry>
        </mxCell>
        <mxCell id="jA_umftNOJLrluZQmawY-8" value="" style="curved=1;startArrow=none;endArrow=block;exitX=0.5;exitY=1.02;entryX=0.5;entryY=-0.01;rounded=0;" edge="1" parent="1" source="jA_umftNOJLrluZQmawY-2" target="jA_umftNOJLrluZQmawY-3">
          <mxGeometry relative="1" as="geometry">
            <Array as="points" />
          </mxGeometry>
        </mxCell>
        <mxCell id="jA_umftNOJLrluZQmawY-9" value="" style="curved=1;startArrow=none;endArrow=block;exitX=0.5;exitY=1.01;entryX=0.5;entryY=0.01;rounded=0;" edge="1" parent="1" source="jA_umftNOJLrluZQmawY-3" target="jA_umftNOJLrluZQmawY-4">
          <mxGeometry relative="1" as="geometry">
            <Array as="points" />
          </mxGeometry>
        </mxCell>
        <mxCell id="jA_umftNOJLrluZQmawY-10" value="" style="curved=1;startArrow=none;endArrow=block;exitX=0.5;exitY=1.02;entryX=0.5;entryY=-0.01;rounded=0;" edge="1" parent="1" source="jA_umftNOJLrluZQmawY-4" target="jA_umftNOJLrluZQmawY-5">
          <mxGeometry relative="1" as="geometry">
            <Array as="points" />
          </mxGeometry>
        </mxCell>
        <mxCell id="jA_umftNOJLrluZQmawY-11" value="" style="curved=1;startArrow=none;endArrow=block;exitX=0.5;exitY=1;entryX=0.5;entryY=0;rounded=0;entryDx=0;entryDy=0;" edge="1" parent="1" source="jA_umftNOJLrluZQmawY-5" target="jA_umftNOJLrluZQmawY-13">
          <mxGeometry relative="1" as="geometry">
            <Array as="points" />
            <mxPoint x="420.4999999999999" y="687" as="targetPoint" />
          </mxGeometry>
        </mxCell>
        <mxCell id="jA_umftNOJLrluZQmawY-12" value="&lt;font style=&quot;font-size: 24px;&quot;&gt;Start&lt;/font&gt;" style="ellipse;whiteSpace=wrap;html=1;fillColor=#008a00;fontColor=#ffffff;strokeColor=#005700;" vertex="1" parent="1">
          <mxGeometry x="327.87" y="200" width="184.25" height="83" as="geometry" />
        </mxCell>
        <mxCell id="jA_umftNOJLrluZQmawY-13" value="&lt;font style=&quot;font-size: 24px;&quot;&gt;End&lt;/font&gt;" style="ellipse;whiteSpace=wrap;html=1;fillColor=#e51400;fontColor=#ffffff;strokeColor=#B20000;" vertex="1" parent="1">
          <mxGeometry x="327.87" y="710" width="184.25" height="83" as="geometry" />
        </mxCell>
        <mxCell id="jA_umftNOJLrluZQmawY-14" value="&lt;font style=&quot;font-size: 24px;&quot;&gt;17.  Write a Python program to sum all the items in a dictionary.&lt;/font&gt;" style="text;whiteSpace=wrap;html=1;" vertex="1" parent="1">
          <mxGeometry x="90" y="30" width="700" height="80" as="geometry" />
        </mxCell>
        <mxCell id="jA_umftNOJLrluZQmawY-15" value="" style="shape=image;verticalLabelPosition=bottom;labelBackgroundColor=default;verticalAlign=top;aspect=fixed;imageAspect=0;image=data:image/png,iVBORw0KGgoAAAANSUhEUgAAAuoAAAE9CAYAAABdtEesAAAAAXNSR0IArs4c6QAAAARnQU1BAACxjwv8YQUAAAAJcEhZcwAADsMAAA7DAcdvqGQAAEg4SURBVHhe7d1/iCvnne/5j60/nMCoa/4wDna3Nkv6uqdRBJvMJHQXaEMmS7vbiHAPWV2T+WMxY1ZEzsw26QQTBhxnxjHMXg6TZptM0hktvvivhDO94YQgrJ7merKzza0jksn1gkajaV9lj1HLxofzx0gKDMfQZP+oKqlUKnVX6Uef6nPeL2g4kp5Teup5nip99dS3Hj3S6/V+K6+jbSW/JP2kt6eNoRfCOdpO6n9f/X/1n7/6Cf9LHr/W9/+n/0H/1/98UbmLdbtdLSws+J+ekSNtJ7+k/+R/WtIf/6SnvUka6L6L/z5dxhh68MfNZddhVu83q+1MIw51CGMW9Qw6jmax3cs3q/PGg39ueNDd/zae1VgM0u129fjjj/ufxoxV/uQx/eVqXf/3/7bsf0lyXv/3/6ek//WnuvfXW/6XJ3L37t3Ac88jP/lj/fZLQyP6jycO0hVigB5tJ/Wl/yTpj3+i3gyOmPmeVHE/XMYYYtzgYTeL4yhOZnXe4NyAac1qLAYhUH9wjQ3UR2bUrxhOqpgE4wZAEM4NiDMC9QfXuED9Uf8TAAAAAO6/R/71X//1Ss+oAwAAPAw++tGP+p/CA+Tf/u3f/E/pkXa7TaAOAAAAxMwjt2/fHhuop1Ip/1MAAAAALgE56gAAAEAMEagDAAAAMUSgDgAAAMQQgToAAAAQQwTqAAAAQAwRqAMAAAAxRKAOAAAAxBCBesz1Gkc6ODjQUbXtfwkAgD4+L2y0gy0O7RCHOlx1BOqx1lO71ZEkdVqnYphfPvckwzkGuAxtVQ8OdOD9G3vwRSk7H/E6P/B5YXuI2qFdPWf8xaEd4lCHq2+qQL3XONLBUUM953G7ejD0+EFmn6CP1Bi7s/aHyNH4AiEktZgyJElGakmL/pc9eo0jHR1UH6gDwf0QHP470lG1ofY0zep4ENsMl4Ox8+C7en38cH9eDIRvhwfbfNoh2tiZTx0eNlMF6t1OR1pIKilJ6qnXlecxZiG5uqF8Pq+NtfOHeLfTkf299UHXUadVk3V43pekcB6eNsOsMXbmZVFr+bzy+bzyeVMp/8tDopSN7ir2MZ8XtrDt8KCbRztEHTvzqMPDZopA3Q7MDWPBedxVJ0rvXXHJ5IIdNHb9rzh6PdnfW/jaMq2U6X4Y55Xf3JSZMiR1VLv1cFy9AQAAD6dHbt++/Vv/k65UKmiOoq3qgaWW/2m/lKn8pN+gem016nXVnNwmyVAqs6611RgFve2qDqyWUmZegbvZa+josKaF/ut2u3Uzm9pYlRrVW/39M1IZra+teq5EBLRxUHs6dTiPkdnUxlC79dRu1FWvtZxvxYaMVFrra4vTXQlx+qzVGnzbNoyU0utrWpxww73GkQ5rnYA2dtsnJTO/pkWnrTtGRpsb3nZ0SlcPZLUMZTY3tNqN1mbeOqR7Vd1y281IKbO+ptEh2VO7ekv1C9rB3q6U2VxXsu3pj7HbDWew3Q0tti+qb5QxqdD7ZrPLWv1j2Mvpi6Si1yHMOPMce0unR3YdjIw2NxbVdrZvpMzoMzyTHm+h2ywK/3Fst1c6vRowzgKOIWdf+vWdV5u5wvTbCOc4Dzr3jYhS9hwR+3ii88PMz7/3+fNiorHj327w+I0mZDvM8fwrTTrWw3DarNUamRQdPr7Dt0PfRTFX5LETtQ7hzpOR+y10X4T8HIoSa/hfnMIUM+pz0mvo6NDyDBhJ6qhVuzV1qsNc9Ro6Ojdn3dFpq3pwOLR/nVZNh8F3g8xcu3ooy3NytFNJLB1OdW9BT41bdp8N9VqnJeswbC7bFJKLsifZWwG5622dtiSl0lMcOIa69SMdetut01JtZN96ahwdygpsh6Cx0VHrlq8/ArcbXevWQUB9g+oQdkxG2bdB2dDC1iHCOOvWnaBB9v7XPSffTqse3BYzFaXNohk9ju32sur+VohmPm0Wrd+unrDnh6B+m8X5d36i1DfK2Bnd7mzGbzTzOP/Oa6z3Bm3m3fAs3PeYK+p5Mmy/TdAXF30OzT3WCJb42te+9uf+J12GYd8EMGxBS+m00mlDvfqpDDOvZ9bTSqceVbt5R0+4j5fclJgoemr8g6XWPclImfr8M+v6dDqtdDol49GuPlxY0uOP+f/PffLIb9Ru3tG9301p+fHH1Pv//qv+6U5H9z5qP9bdpv7r6SP67z657NS5p3b9VHe6d9SVoYz5eX1u/dNKpwz1mqfqdh+RkV6S3WpuGw/auWukRtt0Yckpk5bRq+u0m5KZf0br/f+btuvialf1d//UlVKmNr1t27ur0zstfWik5X+LcD7U3bsf6olPmvY+9bfb1Gm3q0cm3O6Hd3+t5p17MlKe/9/rqfH2z/XfupJSn9T60oKkx/T4R3qqn94ZtL+r/c+6ddpV6pPr9jYitpldh47u3bvnGZPB+9Zr/IOs1j3JyMj8/Oe0/mlP+3Y7uvOh0e9Dd9/uDY314O1GMaivb7uP3tWpd3xKkcZklH1T+239/L917Vm1L37OHmfuNpWSmf+cPtFv4vB1CD3OPryrXzfvqHPvnozMpr64/KHqp3fU7d5TyszL/N22mnc6euyJiG0ccexEarNI2vrnW6fqpjLafMZp33RaKeNRffjIY1p6fLDNwGNIknpt1U+7+sgT/86u87zaTArfbyPssRF47hsRpew5IvZxlPPD/M6/9/nzIvLYCT9+ownZDnM8/04+1i/Qftvui6FzSVopo6fmadd3fIdvh9AxV9SxE6EOUc6T0fotSl+E/RyKEGvM0OQz6r2eujI0SFHvqON9PIleW62OfYlkY+hSYFKLqwGXNWLDXoLIMAx1Wu2RmYZhKZn5Da26112Si1oKyjCag7b9dU+mv23X0kpJap0GfscMIanVtbXBPjnPLc5ox1qWZ9WXw0PVWvalLtN7GW1xSSlppP3bpy3JyCg97opbWENjcrBv3Z77bu4yVCmZG97Lt0ktrq0rY0gKWp7qwu1OxshsDm931e5jf/vYLhqT0fat17Nv3EilPZcGk4tKZwxJXQXv2kV1UPRxZmS07j1pOOPAvr9k3qK12URaLbU90zrJxVWtrU450OfSZhH77SoKcRzP7/w7H5HrG3XszGP8RhWi36KZx1jvqVF3+mLoXKKR1IvI7nvMNeF5MlS/TdIXIT6H5h1rBIgcqPeXzDusqaOOaodOAGW1pP7joMsVIXTtSxSppTns6awlk84sn5wbaQ2l0ikZQ5dEFjRyL2nAEkWLa3nl82sjz8+WsyqPWrJGljx0csm6vYAgLqReW9Uj33KKF+S0TcQwlMqY2tzwt5cTCHrbv9dQvSUZqWnyP20Xj0nnZuqA/pWSsj+rRoPUi7c7mdGbmBcUeIFMwXUeHpPR9s39YG6dei6P99qq1zrBx4SCtx14XEQYZ/5+9z+er2htFs2i1syUDHVUsw51cHCkamM2S5b628j/eGIR+u0quvg4nvP5d+ai19c/VvyPB+Y3fqO6uN8mMK+xbhiemGNG7nvMNdl5MnR9o/ZFQD1GP4fmG2sEiRyoz5M7E3eVdDpdqX2qlpHS4mJSC85KMFdxXybm5Li1Zp48Zxta9WVjQ2urwQdDctE++beco6fXbqmjlNLznxaA12LamQmp6dA9OR46H+4BJ8LQ5jzOrpTFNW3kN7VpZpQyOmrVarIOY/rrf/Qb/K7S+I1iLmN9fivqPdBxylz6wnbZsUbkQN1dE3MzY8i+TGAHUGbKvtS1mc8rn5/sjld3Jm7yy073R6/XddaPty+TjFwSvDSj3zwHnG+n/T4K+Au4izmMdr2mjiQjYw5v2/RfM5oz50YP+5KUc0ntwsDwvDabQNBluv7s1JjZ5MvgXuKc5ncOwu5bu65ax3+Pi6FUZvOcu/4vFptx1hdi7IRts4kk7XSBjbzy+U3Zkzzhbvhsn17eB3T8+i2KEH0cyvzOv5M7b98uo76Tj9+4ms9Yd66GdjryH7V2etLkJo+5zhs7E5jDeXI+feGYKNaYXORA3dUd+pbiNuiU3Nyf2qGOGt78n57ajeqYA7inRtW+tHG538adg6db161ap38pZnEpJbXqqnfmdKlqjAX7SFarHZSDbFswDKlT061qe7YHmWMhudA/cffaDVXr051EoktqNZ2SOjXVG221OoYy5ySMhWmz8Nxctpasqm/sVm+pNvby3rx49qjXVvWWfdIKfclwSLR9c3Nb0+vr2tx0T5AbM1te9f6PszBjJ1qbRdJrqFptqO3Lx7R/AXD4tx1G05B6alc9q3Ncojj0WxQX93E08z7/RhFm3+ZW3wjj96qa7Vh3U0BaqrtBUK+txtGBzsviCGWCmCvM2AlvjudJx2z7whUt1pg2Tp1gHXVbu3ogq+uuJWkvr1NbOG+dzJDGrtc5Zm1Kd11LyZnh9+cuz4uzzx0Nv6+3PkNrbUZY53dsG9hG17od/3+Gy3rrPGpkreWQ3LWEx5l2u9H+v2f91jFrnfaFaLOxdfCvQ20/Obp2rMtIyfTk1Ufbbnjn9sXI2IswJifYtyCja9iGr8N525V3nDnHoNw29LfpRb+BEEaIsROlzSIZOuf5+c+BY+pgGFKnM7KO+jzaLHS/aXy7uobaN0rZSYzZ/uTnh/mcf8fV0xXYDmP+z0T1jTp2Io3fCMbsk2vyfgsv0liPYkybGamU1Gp5fq8lWjtI55UfE3ONKT/5sTnmHKXR82SUfovWF+E/hwYixBpTxqkTzqj7Z9BnmEO1uObkrfkvm6+PDhg5lyBSdlljym9e0bjfcu0Pvf7MubvOpjRdmkFUi2vaNFPjbxiU7G+BG/Yve55bLKLk6oY2MynPNg0ZKVObZmam7xPO4C7tC2/sCNVmUSxqbdNUpj8ANGiLSYOyWXBvwA19AgoSft+Szgozst96yLlr2F4gVuMs1NgJ32aRJFe1PvLeznZHPgAWtbaZGZyT5N6MPeijeYtVv0URqo+jmM/5dyKh9m1O9Y00fq+WuY315Ko2zMygzQxDKXNTG+mptmqLGnOFGjtRzOc8Obe+6IsQa0wZp048ow7Elf3rYNG/tT4Ixs44XBp3Fi4lc9P/6289Nar28pr3r34AAEzvsmKNCWfUgThy828lI5Oe64GDcQZX1/yLzfV6XXXs64TT/d4CAAD3zeXGGsyo4+rz58NdlC/2AIvPjLr/+YGRHEkAAOLuPsUazKjjAeLmtc3/wME4nrxWXyKgYaSUMQnSAQBX2eXGGsyoAwAAADHEjDoAAAAQQwTqAAAAQAwRqAMAAAAxRKAOAAAAxBCBOgAAABBDBOoAAABADBGoAwAAADFEoA4AAADEEIE6AAAAEEME6gAAAEAMEagDAAAAMUSgDgAAAMQQgToAAAAQQwTqAAAAQAwRqAMAAAAxRKAOAAAAxBCBOgAAABBDBOoAAABADBGoAwAAADFEoA4AAADEEIE6AAAAEEME6gAAAEAMEagDAAAAMUSgDgAAAMQQgToAAAAQQwTqAAAAQAwRqAMAAAAxRKAOAAAAxBCBOgAAABBDBOoAAABADBGoAwAAADFEoA4AAADEEIE6AAAAEEME6gAAAEAMEagDAAAAMUSgDgAAAMQQgToAAAAQQwTqAAAAQAwRqAMAAAAxRKAOAAAAxBCBOgAAABBDBOoAAABADBGoAwAAADFEoA4AAADEEIE6AAAAEEME6gAAAEAMEagDAAAAMUSgDgAAAMQQgToAAAAQQwTqAAAAQAwRqAMAAAAxRKAOAAAAxBCBOgAAABBDBOoAAABADBGoAwAAADFEoA4AAADEEIE6AAAAEEME6gAAAEAMEagDAAAAMUSgDgAAAMQQgToAAAAQQwTqAAAAQAwRqAMAAAAxRKAOAAAAxBCBOgAAABBDBOoAAABADBGoAwAAADFEoA4AAADEEIE6AAAAEEME6gAAAEAMEagDAAAAMUSgDgAAAMQQgfpDqtc40sHBgY6qbf9LlyYOdQAAAIgrAvWptFU9ONCB9y8uQWe7qoODAwVXp6d2qyNJ6rROFVhk7uJQBwAAgPiaKlDvNY50cNRQz3ncrh4MPZ5MT+3qkY48we/RUVXt3nRbhVdSiylDkmSklrTof3lCvcaRjg6qIYPu+dQBAADgQTFVoN7tdKSFpJKSpJ56XXkeT6Kt6sGhrFZH9lyrrdNpyTqshwwAL9Oi1vJ55fN55fOmUv6XYyy5uqF8Pq+NtdmFyN3OcL9dZB51AAAAeFBMEajbgblhLDiPu+pEidICtKuWWpKMlKnNfgCcV37TVMaZfQUAAAAeBo/cvn37t/4nXalU0BxxW9UDO6A+V8pUPuJMabt6IKtlKLO5odUw0/K9thr1ulqeGXjDSCm9vqZF9//3Gjo6rGnBzGvp9EhWqyMZGW1uLKpdvaVaqyMjZfZndXuNIx3WpMzmhhbbVd2qtextGyll1tfOqZfTLufud0/tRl11d5syZKTSWl9bnOIqhAbbbbVGviylzLwG1Qnou3PrO2jjmpNPLhlKZda15jZEu6oD6/zRYGQ2tdFvuKh16KldvaX6eX081G/rSrY9bTyu38KMHalf325mUxurUsMZM5JkpDJaX1u1+84ZZx0jo80N5znvVqKObQAA8NCbYkZ9Xjqq1dsh8tx7atyyVAtMkxnNk+7WnSBdkjot1T0BV6dVV8P3hq1bBzrsB9T2/6kdHo2Ui6JdPZTl3aY66rQsHU6V198bbHfKKxojeg0dHdptPNBRq3ZrqnYIr6fG0bhUqKC+6Kh1y9fGnZZqI+Mh2tiRJHXstCxvW3RaNR26d+smF5Uy7Pdrj9SrrdOWpFSaIB0AAISW+NrXvvbn/iddhhGUbrKgpXRa6bShXv1UhpnXM+tppVOPqt28oyfcx0tuSkx4C0uGeu1Tde+cqllvq/foR2Q8vqDH/AUlSR/q7t0P9cQnTX1u/dNKp9NKp1Myek2ddrt6xEhraUHSh3f16+Ydde7dk5HZ1BeXP1T99I663XtKmXmZv9tW805Hjz1hl//w7q/VvNPRvXt2Cs7nn1nXp9MpGY/e1emdju59NKXlx4Nq1FO7fqqukQre93ZVf/dPXSllavOZdX26X9+7Or3T0odufaNqv21v18jI/PzntP7ptNLptFJGT83TroyUd7tu3w36b2x91VPjHyy1htrBqfOjXX24sKTHH5O0sORsLy2jV9dpNyUz/4zW+++T9rVX+Dr0Gv8gq3XPt29Om3U7uvOh0f9/dr/dG+03/3iwS4cbO3Yt1K6f6k73jroylDE/b/+flKFe81Td7iMy0kta0GN6/CM91U/vjI6R9j/r1mlXqU+uT9bHAADgoTT5jHqvp64MDVLUO+p4H09kUWsbmzIzKRnqqFWzdHhwoKNqI2CWMqnVtTWtDuUpJLW4FJSuI8nIaN07nWlklF6UksngChuZTW30U1KSWlxNKyWp0woz2z+qbU+pyhxKc0lqcc3ebus0cB73Aj016s52N1aHUjamnrjttdXq2Gkpg3aQ0xYBqSQz5y7f6N+3pBbX1pUxJAUt6zhU38F46A6tGhRx7Eh2PfIbg/+TXNRI8cWlwDHSPm31xxsAAEBYkQN190dqDg5r6qij2qGzjKLVkvqPg9ISwrIDwY18XpubplKGnWIQmOrQa6t65NTH/RuTL22khvPA/Y/9FpL+VxcUeIEhFGdFHLVk+dddd/O1u72JvgBIkgxDwV83ptC100JSS/crunRuTg5cujEp+/tVV/5VO0PXN8LYkYLrsbiWVz6/5nl+UemMMZz+0muo3rp4vAEAAPhFDtQvUzK5qLWNvDYzhv0loO6ZP3Xyp1szT8y+SqZfaWecnv3N4sE0x7GTXHSuBjmReq/dUkcpped/CQIAADxgIgfq7trXdvCckuksoWim7HQSe1nF2a5skXTSTryzzu16TR1JRsa3lKPpz0eYETcVZKJ14p0Z4H77BPwFrBRyMWeWv9ORP6y2U20m56YEDaeMhDE6yz2VoPSW/hWKBY1c+AhhrmPHuanUTn9x0ncCZuMBAAAuEjlQd3WHZiPdwGkabVWPqmq0fSkgvZ7a1bqdHhIQJC8kF/rP9doNVevTBagDnlr02qresoO70KkVPguGIXVqulVtzzCQdVNAWqq7eUG9thpHBzoviyMUN9+6dqijhjfnuqd2ozqahuTuozpqtSfL4x/m5oC3ZFV971+9pdrYtJjw5jN2klpNp6ROTfVGW62OoQzJ6QAAYAITrKNua1cPZHXdNaPtZfRqC+eth32RgPW1h6Rkbg7WuLbXzR6futBfP9xZ31ruWt7Out/9tb2dx275c7frX+/7gjXEh9cPd9po7Ka9651H4K7f7XvaSKWkVksL3u1Gqu955cesBz6m/NB2x5RxXbjmustIydwY5Ie7/TbSjv7+jjJ2pEEd/H1/Lk+9x6yrDgAAcJEJZ9T9M+izyJVe1JrzC6RD92wahv1LpZ4gXU4KzmYm5SnrlDMzw/9/FgxDqYypzdCBWpCkVjc2Zfr3b1rJVW2YmcGNroahlLmpjfQM3mVxTZtmRqmhu2jtHzwaCdLllk9NcdOt32BMDDj97AnSo5r/2BmsCMNNpAAAYFITz6g/qMbOzAIR2L9EmpI5tCoMAABAeBPOqAMI1lO7eiSrJRmZNEE6AACYGIE6MAvtqrMe+6GsVmf0B7YAAAAiIlAHZsrNoecGUgAAMB1y1AEAAIAYYkYdAAAAiCECdQAAACCGCNQBAACAGHroAvXmXlaJRELZYsX/EgAAABAbD16gXikqkUgoOA5vqnzDkiRZpZsKLPIQaVaKymYTSiQSSmT31PQXcFReTyjxlYQSr8+2xea1Xdguat/mm1klvpJQ8W3/K+e7aLuYzrzad17bvRqa2uuf67IqVsad7QAgXh68QP1cy8o9Z0qSzMI1bflfnlBzL6tsoni1Av9KUSu5kiz7e8u5nn7SbrNZm9d2w2vq/etZ/fzZhH72J3v6jf/lvqbe/9uiXc75+/n1ypjyUcrO17zad17bDeW0opPr2X7b/uzZrP7xb8cFXVH6IkrZ+ZpX+85ru2H85tae/vFPBm37sz/J6h//dlz7RumLKGUdlqVSbmXMZA4AxMtDFqhLy9vHOjs70/H+rMJ06Z26pRDxbqxUbpYkSYXdE52dnenseFvL/kI+5pNP+5+aiXltd6xTO0D/2bMr+uVblnr+133ev76iX75eGirXeyunvw8I7qOUvSzzat95bXes0z39vJDTv7zlPdosvff6in52fTTqitIXUcpelnm177y2O15F//IXO3rv156nfm3pvddz+vtL67dlbR+f6ezsTCe7BUlS6eboewNA3Dx0gTo8zF29tH1ReP7gef9HdoAumfq9b+/qKX8Br1tF/fItSZ8o6DOlM33xzTN9sVTWU5+Q9Osd/dI7mxulLKJbWlHyEwX93rdP7LZ980x/+G076NJbN/W+t2yUvohSFhNJfmF30LZvnumLpV37B8HuQ78tb7+k3ft3cQEAIokeqDf3lHVywCtF+8ZMO7+5qT3ncf9GTafsuPznSjGhRCKrvaAXQ2mqsufJs04klMjZM8XDKiq6r7t/F133bFb6+2P/ZVX0VtTJhU8kErLfsqSc7z2yk+9YrCw/mfE/NeqDivZezyr7FScP9isJZb9TVOUDf8GBUNt12GMtO5PL1U/+j7tKfqGsP3zzWCvrK/6Xh7z//5TsgP7P9vXkkvPk0pb+4M/sQKP383J/5i5K2csQrn1NpZ+Umm8WB333naL2Ythv0pb+4K/3tbI++HL5O+v7+swXJKmm3umgZJS+iFL2MoRuX+eYc4+3xFeyKr45/pwTertz6LeVl7YHbStJS9v6vS94Hjui9EWUsgBwVUUP1B2117LKlZxL0NYNXS8+rx3nsVV6zQ6+l3N6zrRfL498flR0sySp8LImm9RtqlJcUW4nXJ51JM09ZVdy/f2xWSrtPD/Fl4or7FP7OvvhmY6fHddRTe39TU471eEUIOu0pNwr5+TuX7hdV0U3S5bdB68Ff+mLZH1bn39pS7/jf35ERe+9JekTz+kpb5BxWtHJj27Yl9t/XXcuu0cpe0lCtu+Nv8lq5WZp0HenJe28kh0frIfc7sz7LbQofRGl7CUJ074f7Cn7in3MDVgq3Xz+SvTbb24V9S9vSckXXtKT/Wej9EWUsgBwdU0cqFuWJXP3RGflgn1CL1kqlM90smtKslR/R3Ze4Mv26zf8kXrlpkqSCtcmzBWvXLdnss1dlU/s3MOzszOdlJ1L4UO2tO+8fnZWVlCJgab2nt+RJckslHXS/38nKu96ZqS29vvvab9lQeV+WfvveLJvIM6VhnP+xlyhCK25Z39JmqXFgnZfPNHZD8+cvxOV1ySppJsRVxUZtaVrBVOSqcLLuQtz6Wfm9MT+oP/vV5yg3sltH8qTdmZyo5SNFUvWqSVzrawTt9+u2cfwjV9NNcouqd8CArYofRGlbGw0tfc3zjmq329u34WfNR9vHv3W1InnZtK//4uSki+c6PP/wbP1KH0Rpew4pde0x+ovAGJu4kBd5q7e8Aai5q5e2pKWV3wfFFvXVJBk3SgPBZeVm6X+/4muqb3XSnZwfLytLU81pv5QaZZ1w5JUKOt4f8uzvWVtbe9POPsfD+4a8omVHZXMgnbfuPgG0nCWtf3CvrY/5d3asrZ+//yvRFFs7R/r7OxY+97OviRJyVlZYpDb/tQLZX3mhdFE1yhl48K8dqLjF9yxvqytZ1+2j9lfDh+zk5h3v71/Paf3ZOr3/mx75ApJlL6IUva++6CsG6eS1sqefpPTd/va/thQ6YnMu98k6b3XV/TzgDzyKH0RpezAsrbf2FXBtLSTW3mg0hQBPHgmDtTN54ZnWvyPB7b00q45nP7S3NNrpfP+T0hmWjNfv+CduqxpZvpnYGt/eGZ+5C/ECi2X7oOKit/x5ssmlPjBrKft74/eW7n+yhJubvsf/Ict6bY7czdZ2bjIPOkfTU8r7U0niKn3r2f1y7ekp759rJWA+kbpiyhl77v3nXPU79+/c1R0y1r568HNpH/4bSeP/PUV/eOt4ZJR+iJK2WHn35sCAHExcaAexXLuOZme9Jdm+YYsFfTyxNPT76h+0Xl4Qs2Tmv+pB4a7NOVJeVemVdJOwNJoE3HyZUunc+qU+2VpxV6ZwrNqxSC3vanebUnKKLkUsSym1NT71xP65VuWnvr2if5g3fdylL6IUjYmmu9f/XPU76xv6/POyi+9ljODE6UvopQNULmeU8kyteukTU6apggA83Ypgbp7U6md/uL8OuhUPzj0tNKmJKuud3yvuOuDT8pN3amdRL0UWlPk/zLGvHPUl7e29XJBUu1kqu24KmUnX/aaN1/2TGcvzi715f54WslPyL6c/ke+VStOy/a60J9IOwFDlLIx56ZWLK7E78qNmjr5kxVnJv1Mf+BZAWYgSl9EKRsP7uottfdncfTGSZS+iFLWr6mT2jQLGQDA5bmcQN29qdTa0fW9sm5YpnYnS053LMuOp0t6zc0tbFa0l3WXSpyCm1O/s6LsXsUTyNpLQQalMj5tf2vQjbK3/MMn8+TT/cCu+faeij+btjMGZrtcXFjLeurzdt/+y18W9b57Y9ppRf/4lzvqSXrqf3Fzo6OUHeYuc9pf1vTSeUbtB5X+jYqzSK2Ybb/ZQfq//Np0gnT/664ofRGl7LD71m+fcs5RN1eUfdN3jnrz/KU1w5ptv436Tb99TT1lumeNKH0RpSwAXF2P3L59+7f+J12pVMr/lLN04Y60e2JfLqwUlciVZPoeF8pnGv7xz4qKiZxKkmTu6mTaPGunHv5kC7NQkEolZbzv79RpnH7dXWPLm9o9OR6dhRlTfmS7MVIpJpSrzaAfJDXfzGrlpr8nBgovnmn/U/5no5jx2LlV1M/+YrS/+j6xqz/8a/dD3g0O/YUkfaGsLw594YxS1uXZt3Hja07O7be1ss5eCKpvFLPtt9/8bVZ///qY+urh6TdJ0tvFMfeAmNp99XjKG0pn22/nHW8jK79E6osoZb2a2suuaCdT1tkMf6EaAObhkmbU5Sz5Zf9r6ptIJWl5W8flXZnuzf2mqUL5RMcvpX0FJ7C1r5Pyrgr9jUuSqcLuG8Efxlv7OikXBnV5yCw/e6yTawUNdt+0l417cdfz3DTmsVxcWMta+esTfeYLw2PhqRfK+sORQCBKWdeW9gOXFJ2/5d9/Wbtrpkxv2sCSqcK1kxkE6aLf5ulT+zp5cVeFJd856tobUwbpuoR+Mwd55UNBuiL2RZSyAHA1RZ9Rn0KlmFCuVFD5bH+K/HTMAn0RH81KUc/nSrJEf1wl9NtV5VwxKDCjDiD+LmlGvalKMatcSTJ3X+IDLTZKem0oDx+Xyb1peCVn/ypooUywdxXQb1dZU5W915yUJQCIv/kG6pWis1LJinIla/RHkgYFVfSvbDL275yfpEdoWy/ZaSnWTk4rM1hJBpMzzYLKJ/57OhB39NtV0tRe1vks2rEkTbugAQBcjvkG6n2mzEJ5+puSMDvL23rDm+OPS+f+sNXx8f7Qr+si3ui3K840tVsec78RAMTMpeaoAwAAAAjnkmbUAQAAAERBoA4AAADEEIE6AAAAEEME6gAAAEAMEagDAAAAMUSgDgAAAMQQgToAAAAQQwTqAAAAQAwRqAMAAAAxRKAOAAAAxBCBOgAAABBDBOoAAABADBGoAwAAADFEoA4AAADEEIE6AAAAEEME6gAAAEAMEagDAAAAMUSgDgAAAMQQgToAAAAQQwTqAAAAQAwRqAMAAAAxRKAOAAAAxBCBOgAAABBDBOoAAABADBGoAwAAADFEoA4AAADEEIE6AAAAEEOP3L59+7f+J12pVMr/FCbWVvXAUsv7VMpUfm3R+4wjStn56DWOdFjrKGXmdYlve0nuf/sCAABcZKoZ9V7jSAdHDfWcx+3qwdDjyfTUrh7p6OBAB87f0VFV7d50W8VAr3Gko4Oq2v4XAAAAEBtTBerdTkdaSCopSeqp15Xn8STaqh4cymp11PE82+m0ZB3Wr3hguai1fF75fF75vKnzr1VEKRtdtzPcvg+f+bYvAADALEwRqNuBuWEsOI+76kwZ/bWrdjqCkTK12Q+k8spvmsqkDH9xAAAA4IE1QY56QH5vkAlyftvVA1ktQ5nNDa1eMC0/Noe6XdWB1ZKR2dTGalLqNXR0WNOCmdfS6ZGsVkcyMtrcWFS7eku1VkdGytRGxLr29dpq1Otqea4CGEZK6fU1LY7dB6cNQ7VRlLLncNrlPP0287VvulfVrVrL3j8jpcz6WkD/9NRu1FV3y8mQkUprfW1xsissTr91jIw2N1ZHthE4VubQF6HH2eB/RGgHf1nJSGWUTq+eU18AAPCwmGJGfV46qtXbU+a5j+rWnSBdkjot1Z0g3X5YV2OiN+ypcctSLTBV50HIATfUrR/p0BNIqtNSLWDf2tVDWd5y6qjTsnQ46T0LyUWlDPv92iMbaOvUvvTiCWjj0RdR2mG0rNRp1WTVL6u2AAAgzhJf+9rX/tz/pMswgtJNFrSUTiudNtSrn8ow83pmPa106lG1m3f0hPt4yU2JCW9hyVCvfarunVM16231Hv2IjMcX9Ji/oKQP7/5azTv3ZKTSGnqrXlv1064+8sS/0/Ljj0kf3tWvm3fUuXdPRmZTX1z+UPXTO+p27yll5mX+blvNOx099oRvO6F8qLt3P9QTnzT1ufVPK51OK51Oyeg1ddrt6hFj3DZ7atdP1TVSIdopStlzLCw59UvL6NV12k3JzD+jdee5dDptt5fDbt+O7t27JyNl6vPPrOvT4/atXdXf/VNXSpnafGZdn+63w12d3mnpw7HtcJ7H9PhHeqqf3tG9j6aG6qb2P+vWaVep3/+cPtHf7nz6IvQ4U9R2aOufb52qm8po85nPOWXTShmP6sNHHtPS46N1AQAAD5fJZ9R7PXVlaJCi3lHH+3gii1rb2JSZSclQR62apcODAx1VGwGzqhEZGa17UxSMjNKLUjI5TYWTWl1b0+pQnkJSi0tBKUNXlJMWZO/hYN+6nlV42qctSSmZQ+kdSS2upZWS1DqdcIZ4cUkpSZ3W8BUW9/2WhjJV7n9fTNQOrZbansGdXFzV2upoCg4AAHj4RA7Ue40je9nEw5o66qh26CyjaLXstJXDAx0cHE2YSiI7sFld00Y+r81NUynDSQc4nGabkpEazhH2P55Yr63qkdMm7t8FueBXSWo4Gg7grPajlixvGxwc6MC9l6HbG0n7CGdRS3ak7vmi5qS9pJY0UrP72hdR22FRa6b9hbRmHerg4EjVxgy+kAIAgAdG5ED9MiWTi1rbyGszY/Rz12Ol19DRoaXWtMvdYKzFdMa+uuJGsO1TtWQok/aF6VexLxbXtJHf1KaZUcroqFWryTo80FE1ZuMcAADcF5ED9eTqhvJ5N3hOyXSWUDRTdjqJvazixau2RJFctVMHwszMtk+7/qfmpl2vqSPJyPiWkzQvL91icl3N5jekkkouePs+4C9g1ZbQnJtK3fSX9mnLdxOp7bL7YnScTdoOSTvdZSOvfH5TGWOam5sBAMCDJHKg7uoOzVy6l/2n0Vb1qKpG2xeM93pqV+t26oDnx5Tc3PLWqbuahv2Lpv2VXS7RQnKhX69eu6Fq/bLSLSazYNhXKFrt2ayus2AYUqemW9X2jIJ/r6QW7Uhd7Z6d9nJe2tKs+yLKOIvUDr2GqtWG7xd3nX1VR52pjycAAHDVTbCOuq1dPZDVdde47qlxdKjaQvBa1OFctD57Suamdz3sMeUNQ+p0RtZRl/vYv/6183hknewQ3DW2xxna5gXrmA+txx2l7CTGbH/cOuoXrx/u9P+YphjZRmR2XyuVUqslmfm1kfz0ufVF2HEmRWsHd514XxlbKnAfAQDAw2XCGXX/DPr0v0oqLWrN+QXSoUUhDcP+pdKhIF1O+Yy91rZdUKmMqc0NJ03mEiRXN7SZSXnq69TVzAzvQ9wsrmnTTClw9c2JJLW6sSnT33czY99U2mq1gm8inWtfRBlnEdohuar1kT5w6kyQDgAApplRBwAAADA/E86oAwAAAJgnAnUAAAAghgjUAQAAgBgiUAcAAABiiEAdAAAAiCECdQAAACCGCNQBAACAGCJQRwQVFbNFVfxPX2HNvawSiYSyxQdprx4m543J817zi1IWAIDL8ZAE6hUVEwklvH8EZhE1tZfNqWRJavpfi7FKUYlEQsHd3VT5hiVJsko3H8Ig7aofFxeMyaYkq6RcIkQAHqUsAACXZKpAvbmXVXYOH2zz2i4mVymuaMcytXuyr61l/6tX1bJyz5mSJLNwTVv+lyfE+L0cF47J5S3tn+zKVEm5i76ARCkLAMAlmSpQf6duyZ6PnK3Zb3dL+2dnOjs709lZWQX/yzhfpahcSTJ339B2UEB0hS1vH+vs7EzH+7MK0+cxfuflCh8XYcfk8rbe2DWlUm7MVRWPKGUBALgEUwXqeBg0tfdaSTJ39ca5ERFwWaKNyeXtl1WQVHptLzBDxitKWQAA5i16oO7k/CYSCeVKklRSzpfnmt3zf8Q1VSlmlfWWyRZV8RabZLvNivYu2u6V9Z4ae9/TfuLLetX52y/+VA3fvt3d+6ZeTXxZP/HPAFa+Z/+fvffsx82fat8p1yja/+fV7E91V+/p2Hm8X/yFbyOSKte1Y0nmczkFhkTNPWWdHPBK0b4xM5HdU1NN7TmP+zdqOmXt10dVigklEln5uzm8pip7RWWznnFjDyafCXKznbE2+D9ZFb0VnWT8hjFJm83huHBvuh1pJme/R/fN6QtPe2WLlcB9GC2bULa4N76+F43JEVt6adeUrB1d99d/RJSyAADMV/RAPbKm9rIrypWG0wEsq6TcynRB2d7zOe0Ebvfq5wc3il/XjZ1j3fE8d6f0I924HhBMR3DntW/qRuld+4H1X/QPxf9DbzmP75QOdOzrj8rNkiRTz+XOD4lqr2WVKzk9Yd3Q9eLz2nEeW6XX7H5ezuk50369PNLvFd0sSSq8fH4qw1hNVYoryu2UZM0676S5p+yKPdYGLJV2np9i/IYUps3M5zTonngcF/2+6D9jySrltBLwhWO0rGSVdpQbEymHHZNey7nnZEoq3QzepleUsgAAzFP0QH1r38lpPVO5IEkFlft5rvbfsSfSau49rx1Lkrmr8olb5kTlginJ0o77YRxxu5KkTEG75RNPmRPn/5Z0GZ+x9mzmOX8BQUk4v1C9JKnwR/rq2Y/1ivP31fIfKZP2l43mjvWuntj9rl4pZyW9q1rpXWXKP9ZXdz8u6V3decdbuqmTmj8QDGZZlszdE52VC3YQW7JUKJ/pZNfu5/o7krSs7Zft12/4o87KTZUkFa5NmCteuW7PZA+NszOd2APCJ0pudlN7z+/IkmQWyjrxjrXdzKDYJOM3lBBt9vL28MzyfT4u3Pxx+durEDRT7X5B2/WUPdNJeVeFwLEefkwOcb/w1E4uPiajlAUAYI6iB+qRuMvfFVQ+3vaszLCsrf03tGtPW004y7es7f19bQ8t97CsrWvnh11XSum/qFFxUlckPb717/Wl7c8OFYnM/CPlt58aevy5LenxlZS3lOMd1S1JmZWLUwz8+cLmrl7akpZXPMGsJG1dU0GSdaM8FARVbto5xy9NFKc7Ocsj40wX1/sizbLsIVzW8f6WZ3vL2tren3D2P6Lz2kwFDX+3uf/HhVuvsr+99p3876BvC6UbKntyXZa3trW/HTQYIozJIctayUiy6hr6LhooSlkAAOZnzoG686EauPSd82Gomk4mnbZqVlTMevOGx+Ukz8fW/vCM6cjfsW+mM7TP6kvlrJ7Qu3or93W9mvimfrI3mp8+iSee+6weP+fxpPz5wv7HA24OsCeVo7mn10rn/Z+QzLSe9j83rXfqsofw6Ai+PFu6ZkfqnvQXdyY64Ni6r8eFM+MdkKOfSORUkn+mekv75YJMWdrJrTi5/+fkpwMA8BCZc6A+R07ecGnmCckxsfWnKp591053Md9VbedHurEy5obPK8bOAR6kcjTLN2SpoJcnnp52vhDOQdOOOu+7rZd2h9rMTnsxteu/BHEVj4utfR2fndjpLqal0s6Ociv8WiwAADMI1EPMiAemt7gzbxmtBMZn52+3ct3JG9715sGeOTnSl2N+Oequp+x0l+Mf65Wz7+oLZvANn0EaN1v+pybwtNLzyNV1coDtVA4nPSpoZjg0p54BqQp2Gsbk3NSd2nmDMdD54zeyoTZzU4VG87Qv+7io3PR/kXGulJnDOecXX2lattNdjs90dnaiXdNzE/KQScekm9se5qpLlLIAAMzPVIH603Z0pBvlccuuOZfsnV/7G5RpqlJ0bjINCNAu3u5AZuXp/od+s7Kn4mvTBWax0PypflL8qRrNQX669JRWnxu94dPNLa/d/KnuSvayjkXPyi5TcXN1g1YcmYZzg6S1o+t7Zd2wAmaGI3HTqEp6zY3smhXtZd2lEqfg5ofvrCi75xvDe8WAQDLa+FXQMpaBnF9RtW6o3LTTXs5LFZr1ceF+YSnddL982kuu9lf68Xg6bd80+nyxouZFDdDcU7G4p8pQQfcXY92bkL0mHJPuvQZhctujlAUAYI6mCtTdD29rJ6cVz0yyd03lrX1nVY2St4y9XKNM+4YzvzDbtYMhqZRb6b++kttRQNwwtMZ1P0+2lAvcbhTzy1F3lmJc+Xp/DfVXE1/W93felZRV2ttkW2uyY9Qf6fuJL+vVxNftIN38uKfQ5OybEANWHJmWEwCXdnZkBcwMR2WnhtgBdSKRUGIlZ6+1XSjIHikekcaDnUOtkfG4otyOfzbZFmb89jXLutFfxjLoytOA/WM8lurXb6o0JlVobseF018q7Tj75B7DI62r5W37RnGrlNPKymD/3T//95FaaUe5lUF9E4mEVuxv8b4bZW2TjEk7vSrcvQZRygIAME9TBera2tdJuRD0We2xpf2TsnYL3kKmvdTd8f7IbLoUbrvL28c62fUGYc42y3bAdqUt/3vly1k9MbQjH9cThW/oq2d/qlXv0/qsvnTyR8r0y35cmd1v6KvHeTuAn9bWS3bQtXP93CAyOvdqy/kzw6Etb+u4vDsYM6apQvlExy8FrvEXzda+kz89PIYL436+PsT47VvO6Tnn2DADri4Ns9usVCoFXonSXI+LLe2f7GpwGJsq7JZ1cmyv5DJsWdvH9nKMF77n8rbeGGkrp85n484PUcekk14ValWhKGUBAJivR27fvv1b/5OuVCpoyT48dCpFJXIlmbsnE64FHqxSTChXKqg8LiADxokwJpt7Wa3s2Ov6B1zAGxKlLAAA8zbdjDoeDlv7Khcka2a/xOnmN0vm7ksE6Ygu7Jhs7un5HUsqlC8OvKOUBQDgEhCoIxT7XgNLOyvFyde47udEu/nNvh9JGhRU0ZfXPP6vGDL9AQ+aC8dks6Liyo4sc1cnF0XeUcoCAHBJCNQR0pb2z8p2jnJQbB2Je4/C5DfbAheOyWXZN6yHGWdRygIAcEnIUQcAAABiiBl1AAAAIIYI1AEAAIAYIlAHAAAAYohAHQAAAIghAnUAAAAghgjUAQAAgBgiUAcAAABiiEAdAAAAiCECdQAAACCGCNQBAACAGCJQBwAAAGKIQB0AAACIIQJ1AAAAIIYI1AEAAIAYIlAHAAAAYohAHQAAAIghAnUAAAAghgjUAQAAgBgiUAcAAABiiEAdAAAAiCECdQAAACCGCNQBAACAGCJQBwAAAGKIQB0AAACIIQJ1AAAAIIYI1AEAAIAYeugC9V7jSAcHBzqqtv0vAQAAALHxyO3bt3/rf9KVSqX8T11xPTWODlXrSFJKZn5Ni/4imEBb1QNLLe9TKVP5NVoXAABgUlPNqPcaRzo4aqjnPG5XD4YeR+XOdg//Hemo2lB70o0OSWoxZUiSjNTSzIL0XuNIRwdVMUcfHm0GAABwvqkC9W6nIy0klZQk9dTryvN4VjrqtGqyDo/UmEGwnlzdUD6f18YMZ3u7nY46/icfKotay+eVz+eVz5sKcx2GNgMAADjfFIG6HZgbxoLzuKvOjCKvlOkGfXnlNzdlpgxJHdVuTT5bDwAAAFwlE+SoB+QjB5kgR7nXONJhraOUmdfwf3Xf05tXbj/XzWxqY1VqVG+p1rK/KRipjNbXVj0z+wF1HlM/uw5SZnNdyXZd9VrLnvk1Usqsr2nV3Wi7qgPr/FYwMpva6P+HKKLsmyT11G546ipDRiqt9bXFgKsb/rL2NtPpVS16Co/tC2e/x++b09ZB7TvXNgMAAHiwTDGjHhOdtqoHh/1AVpI6rZoOp1rVpaPWrUNZnmBWnZZqh5ecUx1y39pVX13VUadl6TDgfoHRsvY2rfql7hkAAAAuMMGMusueOZU749pr6OiwpgX/DGwEgbO4vZ4a9UPVWv5ZcO8suaGMua7VxaTUa6t66J999zpnxtdTB0kyUqYzK92zA9yWnZbj/2/t6oGs1rj3m0SEfXNnqVOmNvsz6D21q7dktfwz4u6+Z7TpmZXvtRuq95JaWx3UPrAvNOWMusfs2wwAAODBMvmMeq+nrgwNUtQ76ngfT6FleVZ9OXSCdCMlMzDwS8nMb9iBrCQlF7V03veLsFKmNvqBb1KLzka7Pf8c9TxdvG/t05ZdbijNJanFtbRSklqnATPlrZbanmV0kourQ0E6AAAA7r/IgXp/CcXDmjrqqHboBNRWy77h89BeUnEWK7RIkgxDqYypzY0xM68ByywuruWVn3KmNrU0zf+ekQv3zVlpRy1ZI8taOjPy3Z4n/WVRa2ZKhjqqWYc6ODhStTGrpS8BAAAwS5ED9cswtOrLxobWVoNuisREFte0kd/UpplRyuioVavJOuSXWgEAAOImcqDurkO+mTGc1Aw7oDZTkoyMNvN55fMbg9VRHhpdXWpWjCQpqeSCt90D/jb8K8Q4/29xVWsbeeXzm8oYUqdVD3UVpH3a9T81hfvRZgAAAFdD5EDd1R1aNN1NwXg4LRj2Ou+tdntklZV5WzAMqVPTrWr74qC311C12lB7qKD7a60ddTx9mEzaNxu0Tt2VY3pqV49keVagmcb9bDMAAICrYOJVX9rVA1ndjDY3VpVUT42jQ9UWzl/p4yJjVxoJFG51EcmzMsoY3hVMxtbhvNVOxmw/sGwoEfbNbfsx8fPwCjr2yjzBRf0rsASsPS/7ngF1OsP7Nmb/XYHtMOb/BJYFAAB4CE04o+6fQZ/dr5JeSYtr2jRTMgz/C5chqdUN+9dbL3z75KrWR+ppyEiZ2hy5+XZRa5sZpfpl3Zt67dVkpnZf2wwAACD+Jp5RBwAAADA/E86oAwAAAJgnAnUAAAAghgjUAQAAgBgiUAcAAABiiEAdAAAAiCECdQAAACCGCNQBAACAGIptoH5375t6NfFl7Rd/4X/pPqiomC2q4n8aAGKP8xcAXFUxDdTfU+PGu5KkO6WqGv6XL1VTe9mcSpakpv81qfJ6QomvJJR43f4Y9D9+GDXfLir7HacdnL/i2/5Ss1ZR0fN+5/dBlLJxcNXqG43/mPE/hl9FxURCCe9f8Zy2akqySsolCNYB4KqJaaD+lFaf+7gk6YnCmlb9L0/o7t43tZ/4XqTAv1Jc0Y5lavdkX1vL/lelp580/U9Jkswnn/Y/JampyutZZT0BV/Y7RVU+CPgGcEU138xq5QclWaf+V4Bg0Y6h+WnuZZWdQzA7r+2Gtryl/ZNdmSopd15ADwCInZgG6tLj2/9Rr5z9WMX9z/pfmtjd+ru643/yPJWiciXJ3H1D2wFBupcbVIwLOuxZ0RXlqpYsz7PWaUm5V67fvw/xmWqq/EtLkqndF0909sOz/t/+p/xlZ21L+/33K6vgf3lIlLJxcNXqO5mLj6H5eqc+fGzOyuy3u6X9szOdnZ3p7CzkeFje1hu7plTKiVgdAK6O2Abq919Te6+VJHNXb1wUpYdQeT2nkiRzrawTTwB79mpZu2tpf/Er6h3VTyWtvaztT03fZgBmZ3n7ZRUklV7bC8riAwDE0ESBun2j5zd13JTu7n1P+4kv69XEl/Vq9ns6HvkE+IV+kviy9vfek/Sejov2TaL2jaI/1d2Asu7rrya+rFfH3Ew6qMN7apxXh8r3+tu6UZKkY93wvYddN5/Kde1YkvlcTueFnMtPZgIfZ54M+l+mnsttDW/vY1vafmFbW56nmm9mg/O63y7a6TJvOjv4wZ6yTrnK6/b/SXxnT001tec8zk6V5zsuVcdfbo4+qGjvftchDKcv7PYfZeddZ7Xnrfcc9i302OlrqvJm0VOHrLKvVwL3YbRsQtnX986trz0us6P18Yh2DM1YpdjP886VJKmknC//O7vnb42mKsWsst4y2aIqQ+edCbbbrGjvou1OZUsv7ZqStaPr05wWAACXZqJA3VV7/sv6/s7xIJ3EOtZbK3YAP6L+C/0k8XW9VbJvEpWkO6Uf6ftjAvFw3lXt+a/rxkgdouWhB6ncLDmB9QXBwqf2dfbDMx0/65RzHgeneljaKY8LgiZX+1lWuapzcf30hq6//rx2nMdW9bXh4DC0pva+My5VxxNwugHqVxJKfMW+aqBqrh/IDb48TKKpvb/JaSewDvcx5zfIx3J6bslu//JIe1d0sypp6TnlPuY+F499q7y+otzNkqcOlqxqTisBfTZaVrKqO8qVx9W2optVS5Kl0s9Gt9cX6Ri635ray64oV/L1m1VSbiUrf+wdXlN7z+e0E7jd2Y2H5dxzMiWVbs5qiwCAeZoiUH9XdyzpicI39NWzH+uVs+/qud2P28FzeXSG+k7pR6rp4/pC+bt65ezHeuXkG8pI0tCqLp/Vl85+bL9+5rx+gZE6FCTpWHX3c2jrT53t/dh5Lavn+u9h/xW3nxraptTUSU2S+ZwuitPD2nqhrMKSHcSufCWr4puzC9itU0vmtROdvViwg6KqpcKLZzq5ZkqyVH/f/z8u1nzzee2cSlraVflVN1XnROU1e5s7Y4OzGVss+PLdT1Rek6SSbp4zS3v5lrX9Rbv9b/zK17Nv31RJUuGL28NXU+73vr1dVK4qaSgdy+nj0x1dH6qD82VjbXcodevkxV0VnvSW89rStTVTkqnCF8+/MnXfbO07ud5nKhckqaByP//b/jv2pL41957XjiXJ3FX5xC1zonLBOS7cqeqI25UkZQraLZ94ypw4/7ekmcXVyzk9Z0qqnczs/AMAmJ8pAnXpid3vqrj/WT0u2Su1bOeVkXTnxi98KS1yAuT/qOyWExQvf1bpUHdBXaDwjeE6XMtKku6cjH5ZCO8d1S1JmZUZBhdb2v/WicrXCjJlqXQzp5UQqQOhLO3qDXc20nn80qdGUwrCc28KLaj8rW1t9WeBl7X1whvaXZJUvWnP8n1sW8f+Gx3Xyp7g80xn3/IFqKEta/uFfV+++7K2fn8WA2cOPnVNBUnWL8tDQVDlVyVJBV0bmiG+//vm1qv8gjcda1lbLzi5zL8KiA6rN1R+e7B3y5/a1v6z3sStYVsvHOvsh8fafyDuWWiqfMM5Lo63PatALWtr/w3t2lPVE85+L2t7f1/bQ0tLLWvr2qzHw7JWMpKsut7xvwQAiJ3pAvUV/0z0op4Yt2BDwDKLq/s/1itnfzryfBSZa7NbFWb+lrX17L6Of3imk1ftGXarujOcSjIB8zPDs5X+x9G5N4VeG8qdty1rZVGSajqZos6hfVBR8TtO/r3794OSv1RMbOnamj/9xZ2JDmjL+7pvTZ20ZedOe9/fm8LU9s66bmn/RftL5s4PVuy88zdn8CXzSnG+wBcC+tINgFXTyaRT1c2KitnsUB57wk5wBwA8pKYK1DG55Y9taf9bg/SUS0sluUo+2FP2lZxKp7Nd3G6etnK7Mr3pL2/fVEmmdnO+0O4K7ps+ta/jH57Y6S5Llko3d5R7ZdobliFJau4pu5JTybpC4wEAMHezDdSbv1DNkpR5yklFiaOW7l444/W00peUx7n8rJ1mMDx7Gazyq5r/qfly01uGuDOxGa30U2Lmo1LekSXJvOZb0vLFWacDzJBzU6mb/lL5Vcl3E6ntsvdtdOw4V0aWhnPOL05ZWrbTXb5l57PvLk1zw3IchZgRD0xvce5rUUYro4124XYr153xsFvWiTeX3U5SnyH3/pu0LvfnpAAAk5gyUPfkgTd/oZ88/yPdiXE6yuNp92bXoBx6LzeP84bK53y4hldR8TtF7b3dHA7GP2iq8vprdprB4iAf3s0tL/3KXSnDXiaxv7LL3DkpHCopN7RUX1OV152bTINSOeYk8+TT/bZpvr2n4s/inA6wrNxnTCf9xU57OS8Vadb7FmXsPP2kfdPo869X1Lwo0P5gT8XX93y/ouvs6zk3LIdZnnESlaKdIpKd4a/3PJ229+XG2JWZtmSnjNu/8Dl0XBSdm0wD0mIu3u5AZsUzHip7Kr423XgY0SzrxszvvwEAzMtUgXot9/XBeuQrf2XPphe+oS/5P6nC8qx5/mrir1STpNJfnb/eeQSPr6QkSXd2/krfv2AddfsmLks3ZhOpS6cl7fxgRSveXOBX7OUPpYLK3tQI56ZEVXec8k65pXE3AMze1gvOjaFV+6ZXu85uPewbEOfN/YXK0g9W+m228oMdlU79JQfrhA/lWHuWiRxaPzxK2QnYV0ks1cs3VVJBL3tv9HXMbd8ijJ3lZ+0bg61qTiuvuNsf/PmD61p1R7lXBvVNfCWhlZv2+B2+UdYVcnnGyCq6WbK/eFil16ZYEnHYsp1kLmsnp5Ux651v7TvHRclbxl6uUWZB5f3R4yLMdu1gXirlVvqvr+R25OzmMM8a7YmEMx5KucDt+jXLN2R/nxitJwAgfqYK1IeYH1dm9xv66n48Z9Mle6nGr5az42949dp6SfZvg1wPuMwd1Zb2Xy1rd83U0FsvmfYvlb6671lZRU75XXs5R8le3u5aWSffctJkLsWgzgNOfb+1PzJrOA/Lzx7r5FrB02bO+7+4O9yOsWNfkShVS2OvPMxv36KMnWVtf8tejvHC9/zYtt54sSCzv10N6vzDceNhXsszbml/5ikhkrb2dVIuyDy3Mba0f1LWbsF3XBTKOjke0w4htru8fayTXd94KJR1Up52PHg5q9aYu3opsKIAgLh55Pbt27/1P+lKpewZaL+7e9/U93feVab848lnz6+CSlGJXEnm7snomscA7ptmpajncyVZKqh8NiZAxpDmXlYrO5YK5TMFTPwDAGJodjPqD6KtfZULkrXz/MwurwOYXKXopoXYv5BaKBOkh9Lc0/M7llQoE6QDwBVCoH4BOyfV0s5KURWCdSAWTLOg8gkzw6E0Kyqu7Mgyd3VCgwHAlUKgfqEt7Z+VVTClGSbZApjA1r69bOHx8b7nl0FxrmXZN7oeBy23CQCIs4ly1AEAAADMV+QZ9UQi4X8KAAAAwIxFDtQBAAAAzB+BOgAAABBDBOoAAABADBGoAwAAADFEoA4AAADEEIE6AAAAEEME6gAAAEAMEagDAAAAMUSgDgAAAMQQgToAAAAQQwTqAAAAQAwRqAMAAAAxRKAOAAAAxBCBOgAAABBDBOoAAABADBGoAwAAADFEoA4AAADEEIE6AAAAEEME6gAAAEAMEagDAAAAMUSgDgAAAMQQgToAAAAQQ5ED9bOzM/9TAAAAAGYscqAOAAAAYP4I1AEAAIAYIlAHAAAAYohAHQAAAIghAnUAAAAghgjUAQAAgBj6/wHtqOzGAJGoJgAAAABJRU5ErkJggg==;" vertex="1" parent="1">
          <mxGeometry x="46.989999999999995" y="970" width="746" height="317" as="geometry" />
        </mxCell>
      </root>
    </mxGraphModel>
  </diagram>
</mxfile>
